<svg id="visual" viewBox="0 0 900 600" width="900" height="600" xmlns="http://www.w3.org/2000/svg" xmlns:xlink="http://www.w3.org/1999/xlink" version="1.1"><rect x="0" y="0" width="900" height="600" fill="#FFFFFF"></rect><g fill="#81ddff"><circle r="66" cx="116" cy="452"></circle><circle r="46" cx="822" cy="398"></circle><circle r="53" cx="395" cy="271"></circle><circle r="59" cx="516" cy="202"></circle><circle r="60" cx="636" cy="111"></circle><circle r="59" cx="849" cy="595"></circle><circle r="56" cx="349" cy="42"></circle><circle r="46" cx="670" cy="323"></circle><circle r="59" cx="188" cy="7"></circle><circle r="58" cx="343" cy="458"></circle><circle r="55" cx="507" cy="559"></circle><circle r="61" cx="125" cy="185"></circle><circle r="47" cx="225" cy="324"></circle><circle r="52" cx="889" cy="31"></circle><circle r="57" cx="35" cy="74"></circle><circle r="55" cx="215" cy="595"></circle><circle r="54" cx="800" cy="267"></circle><circle r="54" cx="675" cy="487"></circle><circle r="56" cx="71" cy="325"></circle><circle r="59" cx="29" cy="589"></circle><circle r="56" cx="509" cy="386"></circle><circle r="61" cx="350" cy="598"></circle><circle r="49" cx="776" cy="112"></circle><circle r="47" cx="483" cy="72"></circle><circle r="48" cx="261" cy="195"></circle><circle r="63" cx="898" cy="163"></circle></g></svg>