<svg id="Capa_1" data-name="Capa 1" xmlns="http://www.w3.org/2000/svg" xmlns:xlink="http://www.w3.org/1999/xlink" viewBox="0 0 1379.01 994.41"><defs><style>.cls-1,.cls-9{fill:none;}.cls-2{clip-path:url(#clip-path);}.cls-3,.cls-4{fill:#6c63ff;}.cls-18,.cls-3,.cls-5{opacity:0.1;}.cls-15,.cls-3,.cls-5,.cls-8{isolation:isolate;}.cls-6{fill:#ffd037;}.cls-7{fill:#a8a8a8;}.cls-8{opacity:0.2;}.cls-9{stroke:#535461;stroke-miterlimit:10;stroke-width:2px;}.cls-10{fill:url(#Degradado_sin_nombre_2);}.cls-11{fill:#f8bdc5;}.cls-12{fill:#474463;}.cls-13{fill:#575988;}.cls-14{fill:#ffc1c8;}.cls-15{fill:#fff;opacity:0.3;}.cls-16{fill:#dce6f2;}.cls-17{fill:#794f6a;}</style><clipPath id="clip-path" transform="translate(-379.99 -600.1)"><rect class="cls-1" x="380" y="600.1" width="1379" height="994.41"/></clipPath><linearGradient id="Degradado_sin_nombre_2" x1="246.06" y1="1234" x2="246.06" y2="2129.82" gradientTransform="matrix(1, 0, 0, -1, 782.36, 2821.06)" gradientUnits="userSpaceOnUse"><stop offset="0" stop-color="gray" stop-opacity="0.25"/><stop offset="0.54" stop-color="gray" stop-opacity="0.12"/><stop offset="1" stop-color="gray" stop-opacity="0.1"/></linearGradient></defs><g class="cls-2"><path class="cls-3" d="M394.89,1140.72c21.83,93.29,68,173.94,141,213.08,151.73,81.23,493.88,39.32,749.23-8.81a584.68,584.68,0,0,0,332.51-190.13Z" transform="translate(-379.99 -600.1)"/><path class="cls-3" d="M1734,701.58H1593.87a12.11,12.11,0,0,1,0-24.22h24.23a12.12,12.12,0,0,1,0-24.22h-17.3a12.12,12.12,0,0,1,0-24.23h73.13c-16.23-7.55-35.19-12.92-57-15.73-199.41-25.61-270.6-8.67-295.71,8.8-31,21.5-65.55,37.32-102.5,44.94-123,25.38-353.11,55.93-561.65-9.79C553.37,624.44,476.35,679.67,430.17,771.9H1758.31c-1.74-26.8-6.93-51.55-16.46-73.22A12,12,0,0,1,1734,701.58Z" transform="translate(-379.99 -600.1)"/><path class="cls-3" d="M383,946a617.94,617.94,0,0,0,5.43,162.76l1230.16,45a578.65,578.65,0,0,0,85.47-130.4Zm486.55,116.1H845.32a12.11,12.11,0,0,1,0,24.22H705.21a12.11,12.11,0,0,1,0-24.22h24.22a12.12,12.12,0,0,1,0-24.22H712.14a12.12,12.12,0,0,1,0-24.23H852.25a12.12,12.12,0,0,1,0,24.23h17.3a12.12,12.12,0,0,1,0,24.22Z" transform="translate(-379.99 -600.1)"/><path class="cls-3" d="M1758.37,772.71l-1343,32.69c-16.34,42-27.12,89.47-32.14,138.72H1734.84a574.86,574.86,0,0,0,19.52-88.43C1758.38,826.76,1760,798.77,1758.37,772.71ZM655.86,879.78H631.64a12.25,12.25,0,0,1,4.63.92,12.11,12.11,0,0,1-4.63,23.3H491.53a12.11,12.11,0,0,1,0-24.22h24.22a12.12,12.12,0,0,1,0-24.23H498.46a12.12,12.12,0,0,1,0-24.22H638.57a12.12,12.12,0,0,1,0,24.22h17.29a12.12,12.12,0,0,1,0,24.23Z" transform="translate(-379.99 -600.1)"/><path class="cls-3" d="M1088.44,1594.51c242.16,0,438.47-10.63,438.47-23.74S1330.6,1547,1088.44,1547,650,1557.66,650,1570.77,846.29,1594.51,1088.44,1594.51Z" transform="translate(-379.99 -600.1)"/><path class="cls-4" d="M1452.44,1396.22s6.9,9-3.19,22.63-18.41,25.15-15.08,33.66c0,0,15.22-25.34,27.65-25.69S1466.07,1411.46,1452.44,1396.22Z" transform="translate(-379.99 -600.1)"/><path class="cls-5" d="M1452.44,1396.22a11.52,11.52,0,0,1,1.41,2.83c12.09,14.22,18.53,27.48,6.91,27.81-10.83.31-23.81,19.68-26.92,24.57a11.22,11.22,0,0,0,.36,1.12s15.23-25.34,27.66-25.69S1466.07,1411.46,1452.44,1396.22Z" transform="translate(-379.99 -600.1)"/><path class="cls-6" d="M1465.28,1407.73c0,3.19-.36,5.76-.8,5.76s-.8-2.57-.8-5.76.45-1.68.89-1.68S1465.28,1404.55,1465.28,1407.73Z" transform="translate(-379.99 -600.1)"/><path class="cls-6" d="M1469.68,1411.53c-2.79,1.52-5.22,2.44-5.44,2s1.89-1.93,4.68-3.46,1.69-.41,1.9,0S1472.47,1410,1469.68,1411.53Z" transform="translate(-379.99 -600.1)"/><path class="cls-4" d="M1416,1396.22s-6.9,9,3.19,22.63,18.4,25.15,15.08,33.66c0,0-15.23-25.34-27.65-25.69S1402.33,1411.46,1416,1396.22Z" transform="translate(-379.99 -600.1)"/><path class="cls-5" d="M1416,1396.22a11,11,0,0,0-1.41,2.83c-12.09,14.22-18.54,27.48-6.92,27.81,10.83.31,23.89,19.68,26.93,24.57-.1.38-.23.74-.37,1.12,0,0-15.23-25.34-27.65-25.69S1402.33,1411.46,1416,1396.22Z" transform="translate(-379.99 -600.1)"/><path class="cls-6" d="M1403.13,1407.73c0,3.19.35,5.76.79,5.76s.81-2.57.81-5.76-.45-1.68-.89-1.68S1403.13,1404.55,1403.13,1407.73Z" transform="translate(-379.99 -600.1)"/><path class="cls-6" d="M1398.72,1411.53c2.79,1.52,5.23,2.44,5.44,2s-1.88-1.93-4.67-3.46-1.69-.41-1.9,0S1395.93,1410,1398.72,1411.53Z" transform="translate(-379.99 -600.1)"/><path class="cls-7" d="M1405.33,1451.37s19.31-.61,25.14-4.75,29.7-9.1,31.15-2.51,29,33.05,7.21,33.23-50.64-3.39-56.45-6.93S1405.33,1451.37,1405.33,1451.37Z" transform="translate(-379.99 -600.1)"/><path class="cls-8" d="M1469.21,1475.09c-21.8.18-50.64-3.39-56.45-6.93-4.42-2.7-6.18-12.37-6.77-16.82h-.65s1.26,15.56,7,19.11,34.66,7.1,56.45,6.93c6.28,0,8.47-2.29,8.35-5.61C1476.29,1473.81,1473.89,1475.05,1469.21,1475.09Z" transform="translate(-379.99 -600.1)"/><path class="cls-4" d="M718.41,1458.43a14.8,14.8,0,0,0,4.83-7.28c.61-2.88-.62-6.29-3.37-7.4-3.09-1.19-6.4,1-8.91,3.13s-5.37,4.64-8.65,4.17a13.17,13.17,0,0,0,4.07-12.33,5.12,5.12,0,0,0-1.13-2.52c-1.72-1.84-4.83-1.06-6.89.39-6.54,4.6-8.36,13.49-8.4,21.47-.65-2.87-.1-5.88-.11-8.8s-.83-6.28-3.32-7.83a10.11,10.11,0,0,0-5-1.18c-2.94-.11-6.2.19-8.21,2.32-2.52,2.68-1.85,7.16.32,10.06s5.47,4.8,8.5,6.82a18.9,18.9,0,0,1,6.08,5.79,6.91,6.91,0,0,1,.45,1h18.42A51.36,51.36,0,0,0,718.41,1458.43Z" transform="translate(-379.99 -600.1)"/><path class="cls-9" d="M572.06,1478.27s-17.67-60,3.31-104.13a94.77,94.77,0,0,0,7.69-59.46,158.85,158.85,0,0,0-8.41-27.89" transform="translate(-379.99 -600.1)"/><path class="cls-4" d="M587.66,1258.88c0,7.36-13.3,28.68-13.3,28.68s-13.31-21.38-13.31-28.68a13.31,13.31,0,0,1,26.61,0Z" transform="translate(-379.99 -600.1)"/><path class="cls-4" d="M609.66,1299.61c-4,6.17-26.75,16.83-26.75,16.83s.41-25.15,4.41-31.31a13.32,13.32,0,0,1,22.34,14.48Z" transform="translate(-379.99 -600.1)"/><path class="cls-4" d="M608.7,1369.2c-6.56,3.31-31.59,1-31.59,1s13-21.49,19.61-24.8a13.4,13.4,0,0,1,10.28-.92,13.41,13.41,0,0,1,4.59,2.56,13.33,13.33,0,0,1-2.89,22.14Z" transform="translate(-379.99 -600.1)"/><path class="cls-4" d="M596.12,1421.69c-5.91,4.38-31,6.29-31,6.29s9.23-23.38,15.08-27.75a13.37,13.37,0,0,1,10.08-2.92,13.39,13.39,0,0,1,5.07,1.72,13.24,13.24,0,0,1,4,3.57,13.3,13.3,0,0,1,.45,15.2,13.22,13.22,0,0,1-3.76,3.8Z" transform="translate(-379.99 -600.1)"/><path class="cls-4" d="M555,1317.86c5.27,5.12,29.83,10.44,29.83,10.44s-6-24.41-11.32-29.54a13.12,13.12,0,0,0-4.36-3,13.26,13.26,0,0,0-14.7,3,13.1,13.1,0,0,0-2.85,4.44,13.32,13.32,0,0,0,3.37,14.62Z" transform="translate(-379.99 -600.1)"/><path class="cls-4" d="M541,1379.43c6.56,3.31,31.59,1,31.59,1s-13-21.47-19.61-24.79a13.31,13.31,0,0,0-12,23.77Z" transform="translate(-379.99 -600.1)"/><path class="cls-4" d="M535.71,1441.14c5.91,4.37,30.95,6.29,30.95,6.29s-9.22-23.37-15.09-27.75a13.31,13.31,0,0,0-15.82,21.37Z" transform="translate(-379.99 -600.1)"/><path class="cls-4" d="M587.66,1258.88c0,7.36-13.3,28.68-13.3,28.68s-13.31-21.38-13.31-28.68a13.31,13.31,0,0,1,26.61,0Z" transform="translate(-379.99 -600.1)"/><path class="cls-4" d="M609.66,1299.61c-4,6.17-26.75,16.83-26.75,16.83s.41-25.15,4.41-31.31a13.32,13.32,0,0,1,22.34,14.48Z" transform="translate(-379.99 -600.1)"/><path class="cls-4" d="M608.7,1369.2c-6.56,3.31-31.59,1-31.59,1s13-21.49,19.61-24.8a13.4,13.4,0,0,1,10.28-.92,13.41,13.41,0,0,1,4.59,2.56,13.33,13.33,0,0,1-2.89,22.14Z" transform="translate(-379.99 -600.1)"/><path class="cls-4" d="M596.12,1421.69c-5.91,4.38-31,6.29-31,6.29s9.23-23.38,15.08-27.75a13.37,13.37,0,0,1,10.08-2.92,13.39,13.39,0,0,1,5.07,1.72,13.24,13.24,0,0,1,4,3.57,13.3,13.3,0,0,1,.45,15.2,13.22,13.22,0,0,1-3.76,3.8Z" transform="translate(-379.99 -600.1)"/><path class="cls-4" d="M555,1317.86c5.27,5.12,29.83,10.44,29.83,10.44s-6-24.41-11.32-29.54a13.12,13.12,0,0,0-4.36-3,13.26,13.26,0,0,0-14.7,3,13.1,13.1,0,0,0-2.85,4.44,13.32,13.32,0,0,0,3.37,14.62Z" transform="translate(-379.99 -600.1)"/><path class="cls-4" d="M541,1379.43c6.56,3.31,31.59,1,31.59,1s-13-21.47-19.61-24.79a13.31,13.31,0,0,0-12,23.77Z" transform="translate(-379.99 -600.1)"/><path class="cls-4" d="M535.71,1441.14c5.91,4.37,30.95,6.29,30.95,6.29s-9.22-23.37-15.09-27.75a13.31,13.31,0,0,0-15.82,21.37Z" transform="translate(-379.99 -600.1)"/><path class="cls-7" d="M530.27,1474.5s21.52-4.27,27.25-10,31.55-15.67,34.41-8.55,38.72,31.33,14.33,35.61-57.35,5.69-64.52,2.84S530.27,1474.5,530.27,1474.5Z" transform="translate(-379.99 -600.1)"/><path class="cls-8" d="M606.3,1488.92c-24.37,4.28-57.35,5.7-64.52,2.85-5.45-2.17-9.25-12.57-10.74-17.43l-.77.16s4.31,17.09,11.47,19.93,40.15,1.42,64.52-2.84c7-1.26,9-4.14,8.3-7.8C614,1486.17,611.54,1488,606.3,1488.92Z" transform="translate(-379.99 -600.1)"/><path class="cls-10" d="M1290.37,929.5c6.75-7.55,4.11-19.3,4.11-19.3s-31.85-81.2-35.38-82.09-12.4-21.38-12.4-21.38-84.93-80.76-88-80.76-34.06-22.3-38-22.74-10.18-2.68-16.82-6.29-73.88.45-76.53,3.57-15.09,5.36-15.09,5.36-25.21,1.33-28.75,5.79-29.63,6.83-29.63,6.83S941,723.27,958.45,736c-5.58.88-12.11,1.56-18.73,2-1.66.12-3.34.23-5,.32h-1a16.37,16.37,0,0,0-6.19-8.31,50.29,50.29,0,0,0-5.86-2.73,46.76,46.76,0,0,1-8.7-6A285.19,285.19,0,0,0,871.82,694a19.72,19.72,0,0,0-7.33-2.76c-5.39-.51-10.21,3.27-15.48,4.54-9.28,2.23-18.63-3.43-28.17-3.52-11.92-.11-22.77,9.17-26.4,20.61-1.34,4.24-2,9-4.85,12.31-3.77,4.39-10.14,5-15.31,7.63a23.13,23.13,0,0,0-12.42,20.48v.1a12.14,12.14,0,0,0,.11,2c.6,5.38,3.08,10.35,4.91,15.45a64.5,64.5,0,0,1,3.52,16.22v.18c.07.92.14,1.84.17,2.77v3.25c0,4.81-.16,9.65-.15,14.45v3a16,16,0,0,0,.08,1.94v.68a15.26,15.26,0,0,0,.15,1.78,3.29,3.29,0,0,0,.06.77,13.77,13.77,0,0,0,.21,1.71l.12.81c.09.56.19,1.13.29,1.69l.15.78c.12.61.27,1.26.42,1.82a4.66,4.66,0,0,1,.15.62c.23.84.48,1.65.76,2.42a35.43,35.43,0,0,0,23.45,22.11,21.47,21.47,0,0,0,6.23.78c3.77-.08,7.37-1.26,9.61-3.83.56.63,1.1,1.26,1.67,1.88a75.32,75.32,0,0,0,122.34-16.34c1.32-.29,2.63-.55,3.95-.81l6.9-1.25,2.22-.36.88-.15c11.32-1.78,22.3-3,30.17-3.77l-31.1,3.86s-7.54,36.23-9.71,40.24,7.54,10.7,7.54,10.7,8.41,10.25,8.41,13.39,9.73,12,12.38,17a7.44,7.44,0,0,0,1.26,1.69,17.85,17.85,0,0,0-5.36,3.26c-6.14,5.82-4.1,16-6.91,24-1.76,5-5.44,9.1-9,13.06a17.88,17.88,0,0,0-3.17,4.39,10.91,10.91,0,0,0-.84,3.37,15.66,15.66,0,0,0-.07,1.94v.22a7.27,7.27,0,0,0,.1,1.48v.65c.61,5.25,2.4,10.33,2.94,15.59s-.12,10.55,1,15.66a23,23,0,0,0,1.73,5.17l-18,20.12s-.11,1-.15,2.63c-15,12.46-38.21,36-29.93,56.7q1.36,3.4,2.52,6.53c-6.1,3.88-8.11,8.5,1,13.1,1.44.73,2.84,1.36,4.21,1.92,4.69,13.77,6.52,17.6,14.38,7.46.84-1.11,1.82-2.52,2.89-4,11.06-.22,17.46-5.34,17.46-5.34s31-1.79,39,3.13c4,2.51,13.44,3,21.79,3a226.54,226.54,0,0,0,1.25,26.94s-1.33,37.92,2.22,46,5.5,21.87,5.5,21.87-5.94,13.37-2.41,20.52-3.09,17.4-3.09,17.4v26.31l2.51-.17c-.19,1.77-.43,3.63-.74,5.4-.73,4.12-1.83,7.8-3.51,9-4.42,3.19-4.86,20.12-4.86,20.12s-7.08,20.53-5.76,24.1-8.4,10.7-6.19,16.06,6.74,39.25,10.68,49-8,7.14-8,7.14l3.53,25.42s3.54,25.88.89,27.66-17.91,14.73-7.41,22.31c.81.59,1.64,1.13,2.51,1.64a25.83,25.83,0,0,1-.09,3.52c-.2,2-.7,3.6-1.82,3.78-3.12.45-9.31,3.57-10.62,2.24s-8.8,3.37-16.34,4.9l-1,.16-9.8-2.51a68.85,68.85,0,0,0-44.24-1.64s-7.1,1.11-10.55,6.42c-1.74,2.71-2.51,6.53-.95,11.87,4.72,15.76,36.94,21.19,36.94,21.19s11.16,2.3,24.57,5.35h-1.34a14.73,14.73,0,1,0,5,.91c15.08,3.47,31.78,7.7,38.57,10.68a117.58,117.58,0,0,0,15.5,4.65,14.71,14.71,0,0,0,27.38,6.16c20.52,4.29,40.29,7.92,40.29,7.92l33,.54h.23a14.68,14.68,0,1,0,.2,0l50,.82a14.75,14.75,0,0,0,18.37,18.32,14.63,14.63,0,0,0,5.51-3,14.92,14.92,0,0,0,4.58-14.81l44.09.71,8.8-9.68a7.83,7.83,0,0,0,.87-3c.26-3.18-1.39-8-12.65-10.06-.83-.15-23.8.22-44.1.56v-8s-.57-4.39-.92-9.56c-.1-1.52-.19-3.11-.23-4.67a12.29,12.29,0,0,0,3.77,1.73c8.41,1.34,19.91-23.2,19.91-23.2s0-13.83,2.65-25,7.55-48.64,7.55-48.64l10.63-45.05s4.4-91.91,2.19-95.48,2.66-9.82,2.66-9.82,3.53-19.63-1.77-26.31,3.09-13.39,3.09-13.39,2.21-23.2-4-32.12,2.9-15.16,2.9-15.16l2.21-36.14c9.29-9.36,17.69-65.13,18.14-77.17a49.66,49.66,0,0,1,4.42-19.64s6.19-9.37,7.08-15.62,7.54-19.17,7.54-19.17l11.5-42.84c4.64-17.28,3.46-30.05.38-39.15C1291.34,931.79,1290.86,930.62,1290.37,929.5ZM1082.58,932c7.08,4.47,4.87,5.8,7.08,8.48s.44,2.22-1.33,6.68-.44,3.14.44,8,.45,4.9.45,4.9l2.21.32-3.08,20.7c-5,3.29-7.32,9.57-8.37,16.06-3-3.87-6-7.89-8.63-11.64.91-2,.74-4.49.76-6.79.11-7.54,2.92-14.75,4.21-22.18a56,56,0,0,0-.71-22.77,35.33,35.33,0,0,0-2.95-8.09c2.86,1.92,6.49,4.18,9.92,6.34Zm8,437.21s5.59-3.77,11-7.2c1.82,13.24,3.54,27,4.76,39.45-1.95-4.32-3.31-7.26-3.31-7.26a15,15,0,0,1-3.42-8.48c-.21-4.85-9.06-16.46-9.06-16.46Zm-33.17-458.57c1.26.17,3,1.77,4.73,3.68-1.56-1.25-3.13-2.51-4.74-3.69Zm-81,165.06c-5.1,1.61-22.4,1.37-32.68.77,3.85-6.58,7.67-13.27,11.06-19.26a41.9,41.9,0,0,0,6.1,1.09l33.67-29.58a58,58,0,0,0,39.09-.26l.92,1.44c.39.63.8,1.26,1.26,2l-.85-1.37s-13,7.74-11.67,11.32-1.76,12.48-6.63,22c-1.25,2.38-2.35,4.75-3.4,7.12C1002.26,1072,981.51,1074.1,976.41,1075.71Zm63.89,412.2-.19-3.53c2.14-.46,3.55-.89,3.55-.89a137.19,137.19,0,0,0-2.22-15.62c-1.33-5.35-.64-3.57,4.54-7.54s0-49,0-49,2.52-3.13,6.5,4.91,8,12.94,9.32,13.38-5.32,9.37,0,17.85a51.37,51.37,0,0,1,6.62,17.84s-3.53,14.17,1.77,20.47a7.86,7.86,0,0,0,2.51,1.72v3.59a45.23,45.23,0,0,1-.11,4.79,1.8,1.8,0,0,1-.37.82,1.77,1.77,0,0,1-.73.53,1.71,1.71,0,0,1-.9.1,1.75,1.75,0,0,1-.83-.35c-1.37-.89-10,1.11-9.46,6.7a41.09,41.09,0,0,1-6.94,6.5l-12-3.11Z" transform="translate(-379.99 -600.1)"/><path class="cls-4" d="M931.74,1025.71s-4.21,34.51,29.18,38l5-23.89-10.52-14.15-15.07-5.11Z" transform="translate(-379.99 -600.1)"/><path class="cls-5" d="M940.36,1020.6l-8.62,5.1s-4.21,34.51,29.18,38" transform="translate(-379.99 -600.1)"/><path class="cls-11" d="M992.34,830.56s-22.54,1.38-45.14,5.13q-3.47.59-6.9,1.26c-1.33.25-2.64.51-3.95.8-11.84,2.44-22.62,5.61-28.91,9.66-7.54,4.84-10.05-8.2-10.29-26.32-.1-6.37.11-13.37.45-20.43.44-8.17,1.08-16.45,1.76-23.89,1.49-16.5,3.22-29.32,3.22-29.32s7.89,0,18.44-.37l3.39-.12c3.31-.13,6.81-.3,10.35-.52,1.67-.09,3.35-.19,5-.31,6.69-.48,13.29-1.16,18.86-2,5.93-1,10.74-2.16,13.36-3.77C983.94,733.2,992.34,830.56,992.34,830.56Z" transform="translate(-379.99 -600.1)"/><path class="cls-12" d="M1092.75,958l-4.4,29.21s-9.59,11.94-8.33,18.58,12.32,300,12.32,300,21.68,123.89,14.15,139.82-.44,53.11-.44,53.11l45.13-7.08L1166.26,950Z" transform="translate(-379.99 -600.1)"/><path class="cls-5" d="M1092.75,958l-4.4,29.21s-9.59,11.94-8.33,18.58,12.32,300,12.32,300,21.68,123.89,14.15,139.82-.44,53.11-.44,53.11l45.13-7.08L1166.26,950Z" transform="translate(-379.99 -600.1)"/><path class="cls-13" d="M1192.29,1506.27c-1.43,2.38-1.32,9.37-.92,15.32.36,5.11.92,9.46.92,9.46v30.09s-48.22-16.81-74.76-34.51c-11-7.31-14.07-14.1-13.46-19.53.88-7.73,9.3-12.77,13.46-12.77,4,0,16.52-6.93,26.8-13,8.08-4.79,14.79-9.08,14.79-9.08S1194.94,1501.85,1192.29,1506.27Z" transform="translate(-379.99 -600.1)"/><path class="cls-5" d="M1192.29,1506.27c-1.43,2.38-1.32,9.37-.92,15.32-10.72-5-43.91-37.25-47-40.31,8.08-4.79,14.79-9.08,14.79-9.08S1194.94,1501.85,1192.29,1506.27Z" transform="translate(-379.99 -600.1)"/><path class="cls-12" d="M1291.39,978.36l-11.5,42.48s-6.64,12.83-7.54,19-7.08,15.5-7.08,15.5a49,49,0,0,0-4.42,19.46c-.44,12-8.8,67.27-18.14,76.56l-2.21,35.84s-8.8,6.19-2.66,15.09,4,31.86,4,31.86-8.41,6.64-3.09,13.28,1.76,26.12,1.76,26.12-4.87,6.18-2.66,9.73-2.18,94.7-2.18,94.7L1225,1422.68s-4.88,37.18-7.54,48.25-2.65,24.77-2.65,24.77-11.5,24.34-19.91,23-49.1-41.16-49.1-41.16l5.75-134.54s4.86-57.08,1.77-68.15-5.3-66.37-5.3-66.37l-6.2-87.17L1080,1024s-4.49-28.32,8.33-36.72l2.33-15.31,2.1-13.9,73.44-8,112.36-29.2s8.66,5.34,13.2,18.69C1294.83,948.54,1296,961.22,1291.39,978.36Z" transform="translate(-379.99 -600.1)"/><path class="cls-14" d="M1095.9,1023.12s-52.21,64.12-50,46.2c1.38-11.25-5.76-25-11.32-33.68-3.28-5.17-6-8.55-6-8.55s31.85-58.4,33.62-50.44c.57,2.51,4.25,8.28,9,14.87C1081.2,1005.33,1095.9,1023.12,1095.9,1023.12Z" transform="translate(-379.99 -600.1)"/><path class="cls-15" d="M1192.29,1554.88v6.29s-48.22-16.81-74.76-34.52c-11-7.3-14.07-14.09-13.46-19.52,14.65,7.41,41.91,21.56,50.17,27.94C1161.26,1540.47,1179.38,1549,1192.29,1554.88Z" transform="translate(-379.99 -600.1)"/><path class="cls-12" d="M1180.94,1578.76A14.75,14.75,0,1,0,1166.2,1564,14.76,14.76,0,0,0,1180.94,1578.76Z" transform="translate(-379.99 -600.1)"/><path class="cls-12" d="M1030.33,1558.05a14.75,14.75,0,1,0-14.74-14.75A14.75,14.75,0,0,0,1030.33,1558.05Z" transform="translate(-379.99 -600.1)"/><path class="cls-4" d="M1249,1548.54a7.73,7.73,0,0,1-.86,3l-8.8,9.59-123-2-33.07-.54s-69.61-12.68-83.18-18.59-66.88-16.72-66.88-16.72-32.2-5.41-36.93-21c-1.59-5.3-.79-9.08,1-11.77,3.43-5.27,10.54-6.38,10.54-6.38a69.49,69.49,0,0,1,44.25,1.64l206.14,53,3.19.82s73.48-1.37,75-1.1C1247.66,1540.6,1249.31,1545.39,1249,1548.54Z" transform="translate(-379.99 -600.1)"/><path class="cls-15" d="M1249,1548.54c-12.37-1.61-33.94-4-39.49-1.69,0,0-39.23-4.86-93.2,12.32l-33-.54s-69.61-12.68-83.18-18.59-66.88-16.72-66.88-16.72-32.2-5.41-36.93-21c-1.59-5.3-.79-9.08,1-11.77,2.2,6.41,6.43,15.7,13.2,18.3,10.62,4.09,54.27,12.41,54.27,12.41l86.4,21.16s49.89,10.83,69.31,3.78c8-2.87,22.89-5.42,37.71-7.42l3.19.82s73.49-1.37,75-1.11C1247.66,1540.6,1249.31,1545.39,1249,1548.54Z" transform="translate(-379.99 -600.1)"/><path class="cls-12" d="M1129.72,1532.61a39.28,39.28,0,0,1-.69,5.52s-48.87,1.75-74.31-2c-7-1-11-3.3-13-6a9.18,9.18,0,0,1-.92-8.8,13.55,13.55,0,0,1,1.07-2.36c1.9-3.32,4.81-5.67,6.41-5.36,4.42.9,12-8.18,12-8.18-.61-5.55,8.1-7.55,9.46-6.64a1.7,1.7,0,0,0,.83.35,1.74,1.74,0,0,0,.9-.11,1.81,1.81,0,0,0,.73-.53,1.75,1.75,0,0,0,.37-.82c.08-.41.11-2.41.11-4.75,0-3.9-.11-8.8-.11-8.8l49.12,6,2,9.39c1.78,8.38,4.27,19.88,5.34,23.82A28.31,28.31,0,0,1,1129.72,1532.61Z" transform="translate(-379.99 -600.1)"/><path class="cls-5" d="M1129.72,1532.61a39.28,39.28,0,0,1-.69,5.52s-48.87,1.75-74.31-2c-7-1-11-3.3-13-6,6.52-.39,15-.6,20.26.68C1069.5,1532.66,1114.31,1532.66,1129.72,1532.61Z" transform="translate(-379.99 -600.1)"/><path class="cls-12" d="M1041.85,1518.93a2.55,2.55,0,0,1-1.07,2.37c-6.19,4.78-35.86-.42-35.86-.42s-60.64-3.77-69.7-10a6.28,6.28,0,0,1-2-2.1c-3.77-6.81,9.88-18.25,11.06-18.25s17.49-2.23,18.58-2.44c7.54-1.52,15.08-6.2,16.34-4.87s7.54-1.77,10.61-2.21c1.12-.16,1.63-1.75,1.82-3.77a41.73,41.73,0,0,0-.27-8.21l48.43,13,.42,7.72,1.4,25.7.17,3.15A1.17,1.17,0,0,1,1041.85,1518.93Z" transform="translate(-379.99 -600.1)"/><path class="cls-5" d="M1005,1520.88s-60.64-3.77-69.7-10a6.28,6.28,0,0,1-2-2.1c12.28,1,32.76,2.71,36.45,3.65,5.32,1.26,35.2,3.09,35.2,3.09h36.74l.18,3.16C1043.43,1527.62,1005,1520.88,1005,1520.88Z" transform="translate(-379.99 -600.1)"/><path class="cls-12" d="M956.5,1558.05a14.75,14.75,0,1,0-14.74-14.75A14.74,14.74,0,0,0,956.5,1558.05Z" transform="translate(-379.99 -600.1)"/><path class="cls-12" d="M1116.63,1588.66a14.75,14.75,0,1,0-14.74-14.74A14.74,14.74,0,0,0,1116.63,1588.66Z" transform="translate(-379.99 -600.1)"/><path class="cls-11" d="M966.68,1041.64s-2.79,5-7,12.5c-10.05,17.75-28.14,49.22-35.92,59.18-11.06,14.16-10.17.89-22.12-28.76-8.88-22,18.44-47.29,33-58.75,5-4,8.55-6.29,8.55-6.29Z" transform="translate(-379.99 -600.1)"/><path class="cls-14" d="M1020.2,1075.71s-36.71,3.1-43.79,5.31-37.59.88-40.22,0-54.87,11.06-31,23,39,0,39,0,31-1.78,39,3.1,37.15,2.22,37.15,2.22Z" transform="translate(-379.99 -600.1)"/><path class="cls-5" d="M943.93,804.9c4.53,11.57,1.7,21.66-3.63,32-13.35,2.51-25.91,6-32.9,10.46-19.91,12.84-4.86-100-4.86-100s9.63,0,21.83-.49C920.68,763.74,934.68,781.26,943.93,804.9Z" transform="translate(-379.99 -600.1)"/><path class="cls-11" d="M945.06,802.38a75.42,75.42,0,1,1-7.54-33A75.41,75.41,0,0,1,945.06,802.38Z" transform="translate(-379.99 -600.1)"/><path class="cls-5" d="M1291.75,939.52a17.26,17.26,0,0,1-10,7c-17.26,4.86-138.92,34.07-146.88,32.3-7-1.56-37.18-5.9-44.13-6.89l2.1-13.91,73.44-8,112.36-29.2S1287.22,926.18,1291.75,939.52Z" transform="translate(-379.99 -600.1)"/><path class="cls-5" d="M992.34,830.56a423.39,423.39,0,0,0-42.93,4.77,3,3,0,0,0-.07-2l29.41-3.63s-4.3-69.16-20.11-85.73c5.93-1,10.74-2.16,13.36-3.77C983.94,733.2,992.34,830.56,992.34,830.56Z" transform="translate(-379.99 -600.1)"/><path class="cls-4" d="M953.86,726.7s26.11-2.35,29.64-6.77,28.76-5.75,28.76-5.75,12.38-2.21,15.08-5.32,69.89-7.08,76.52-3.53,12.84,5.74,16.82,6.2,35,22.55,38,22.55,88,80.11,88,80.11,8.8,20.35,12.4,21.23,35.39,81.43,35.39,81.43,4.43,19.46-12.82,24.34-138.92,34.07-146.87,32.3-45.57-7.08-45.57-7.08.44,0-.44-4.86-2.21-3.55-.45-8,3.55-4,1.34-6.63,0-4-7.08-8.42-15.09-9.29-15.49-10.61-6.63-10.18-9.73-10.62-89.81-24.78-89.81-24.78l-20.35-6.64s-9.73-6.64-7.54-10.61,9.72-39.93,9.72-39.93l31.11-3.83s-4.64-74.94-22.06-87.51S953.86,726.7,953.86,726.7Z" transform="translate(-379.99 -600.1)"/><path class="cls-5" d="M966.68,1041.64s-2.79,5-7,12.5c-.65-23.09-16.79-27.56-25-28.33,5-4,8.55-6.29,8.55-6.29Z" transform="translate(-379.99 -600.1)"/><path class="cls-4" d="M945.06,873.92l2.14,12s8.41,10.18,8.41,13.27,9.73,12,12.39,16.82,11.94,5.75,8.4,14.16-23.88,72.58-23.88,72.58l-20.79,23s34.5-3.11,29.18,38l44.69-39,35-63.69s-34.06-64.6-35.38-69.9S945.06,873.92,945.06,873.92Z" transform="translate(-379.99 -600.1)"/><path class="cls-5" d="M1048.52,896.05s28.31-19.91,28.31-22.13S1048.52,896.05,1048.52,896.05Z" transform="translate(-379.99 -600.1)"/><path class="cls-5" d="M1095.9,920.83s15.08-3.54,16.34-11.5S1095.9,920.83,1095.9,920.83Z" transform="translate(-379.99 -600.1)"/><path class="cls-5" d="M1108.24,941.19s21.24-10.52,20.35-12.35S1108.24,941.19,1108.24,941.19Z" transform="translate(-379.99 -600.1)"/><path class="cls-5" d="M1221.93,873.79s-8.8,5.74-6.18,11.12S1221.93,873.79,1221.93,873.79Z" transform="translate(-379.99 -600.1)"/><path class="cls-5" d="M1248,876.14s-25.07,23.88-19.4,24.34S1248,876.14,1248,876.14Z" transform="translate(-379.99 -600.1)"/><path class="cls-5" d="M1191,1246.52s32.29,6.2,33.17,8.41S1191,1246.52,1191,1246.52Z" transform="translate(-379.99 -600.1)"/><path class="cls-5" d="M1202.47,1267.76s17.25,10.62,17.69,13.71S1202.47,1267.76,1202.47,1267.76Z" transform="translate(-379.99 -600.1)"/><path class="cls-5" d="M1198.49,1291.66s2.65,11.94,7.07,13.72S1198.49,1291.66,1198.49,1291.66Z" transform="translate(-379.99 -600.1)"/><path class="cls-5" d="M937.6,769a.75.75,0,0,1-.07.39c-.6,3.94-2.21,8.2-5.9,9.51a9.41,9.41,0,0,1-6.7-.62c-6.29-2.75-11.88-9.37-18.59-7.77-3.2.75-5.43,3.18-7,6.16a30.81,30.81,0,0,0-2.51,6.75c-1.26,4.93-2.26,10.29-.34,15a15.87,15.87,0,0,0,1.13,2.21c1.78,2.85,4.3,5.28,6.06,8.16,2.19,3.6,2.75,9-.66,11.46a6.92,6.92,0,0,1-5.85.81,34.17,34.17,0,0,1-7.16-3.17c-4.45-2.32-10-3.77-14.27-1.08-1.46.91-2.63,2.22-4,3.17a14.53,14.53,0,0,1-9.71,2c-8-.82-11-5.89-17.1-9.81-4.47-2.89-13.82-4.13-16.49,1.78-1.71,3.78.83,8.53-.84,12.37s-7,5-9.45,8.61c-3.25,4.7-.23,11.5-2.6,16.72a8.8,8.8,0,0,1-1.45,2.21A75.65,75.65,0,0,1,921,747l3.39-.13c3.31-.12,6.81-.3,10.35-.51a29.17,29.17,0,0,1,1.94,5.52A46.12,46.12,0,0,1,937.6,769Z" transform="translate(-379.99 -600.1)"/><path class="cls-12" d="M826.59,812.21c-1.72,3.77.82,8.53-.84,12.36s-7,5-9.45,8.6c-3.26,4.72-.24,11.52-2.6,16.73-2.72,5.94-10.91,6.87-17.2,5.14a35.22,35.22,0,0,1-23.45-21.94c-4.26-12.14-1.51-25.49-2.62-38.3a63.26,63.26,0,0,0-3.52-16.08c-1.82-5-4.31-10-4.9-15.33A22.81,22.81,0,0,1,774.3,741c5.18-2.52,11.56-3.23,15.33-7.55,2.89-3.34,3.5-8,4.85-12.22,3.63-11.31,14.48-20.54,26.4-20.43,9.52.08,18.85,5.7,28.16,3.48,5.27-1.25,10.06-5,15.49-4.48a19.54,19.54,0,0,1,7.33,2.72,285.53,285.53,0,0,1,41.11,27,46.43,46.43,0,0,0,8.71,5.92,52.76,52.76,0,0,1,5.87,2.7c4.06,2.52,6.19,7.31,7.34,12a45.5,45.5,0,0,1,.93,17.12c-.55,4-2.13,8.57-6,9.91a9.34,9.34,0,0,1-6.71-.64c-6.28-2.73-11.87-9.34-18.58-7.76-5.48,1.26-8.12,7.47-9.55,12.92-1.26,4.92-2.29,10.28-.34,15,1.61,3.9,5,6.75,7.18,10.36s2.76,9-.66,11.46c-3.77,2.73-8.88-.18-13-2.34-4.42-2.33-10-3.77-14.26-1.09-1.45.9-2.62,2.21-4,3.18a14.66,14.66,0,0,1-9.7,2c-8-.82-11-5.89-17.1-9.81C838.6,807.52,829.27,806.29,826.59,812.21Z" transform="translate(-379.99 -600.1)"/><path class="cls-5" d="M1071.22,991.46c-.34,1.88-2.93,2.1-3.45,3.93-5,17.74-16.09,33.7-33.16,40.24a103.11,103.11,0,0,0-6-8.55s31.85-58.41,33.63-50.45C1062.8,979.11,1066.48,984.87,1071.22,991.46Z" transform="translate(-379.99 -600.1)"/><path class="cls-14" d="M1072.16,979.24a58.19,58.19,0,1,1-4.39-22.39A58.37,58.37,0,0,1,1072.16,979.24Z" transform="translate(-379.99 -600.1)"/><path class="cls-5" d="M1039.89,1482.14l.42,7.72c-5.11,1.14-14.84,2.62-20.51-.85-7.33-4.49-18.15-5.58-28.07-11.69a41.73,41.73,0,0,0-.27-8.21Z" transform="translate(-379.99 -600.1)"/><path class="cls-5" d="M1123.69,1499.51c-.34,1.72-.66,2.78-.66,2.78s-39-4-50.27-9.4c0-3.89-.12-8.8-.12-8.8l49.12,6Z" transform="translate(-379.99 -600.1)"/><path class="cls-13" d="M1114.88,1324c-2.66,7.08-4,8.41-1.32,11.94s1.32,22.13-2.91,23.89-20.11,12.39-20.11,12.39,8.8,11.5,9.06,16.34a14.85,14.85,0,0,0,3.42,8.41s13.63,29.21,16.34,38.5,5.21,23.89,5.21,23.89-4.77,13.28-1.47,20.81,0,18.58,0,18.58-47.53-4.86-52.79-11.11-1.77-20.31-1.77-20.31a50.76,50.76,0,0,0-6.63-17.7c-5.32-8.41,1.26-17.25,0-17.7s-5.32-5.31-9.31-13.27-6.49-4.87-6.49-4.87,5.18,44.69,0,48.68-5.88,2.21-4.55,7.54a137.18,137.18,0,0,1,2.21,15.49s-15.92,4.87-23.88,0-19.94-5.76-30.46-13.27,4.77-20.36,7.42-22.13-.88-27.44-.88-27.44l-3.55-25.22s11.94,2.65,8-7.08S992,1347,989.77,1341.65s7.54-12.4,6.2-15.93,5.74-23.89,5.74-23.89.45-16.81,4.87-20c1.68-1.18,2.78-4.85,3.5-8.91a109.81,109.81,0,0,0,1.37-14.49s101.3-7.07,117.67,2.66c7.36,4.37,6.85,12.43,3.77,20.59-3.77,10-11.51,20.12-13.46,23.8C1115.77,1312.3,1117.53,1316.88,1114.88,1324Z" transform="translate(-379.99 -600.1)"/><path class="cls-5" d="M1132.76,1281.71c-12.57,3.54-29.31,8.73-32,11.71-4.42,4.88-19.47-27.44-19.47-27.44s.89,24.3-19,14.14c-17.24-8.8-45-7.65-52.24-7.17a111.53,111.53,0,0,0,1.37-14.49s101.29-7.07,117.66,2.66C1136.4,1265.49,1135.88,1273.55,1132.76,1281.71Z" transform="translate(-379.99 -600.1)"/><path class="cls-16" d="M1081.25,1014.2s8.8-10.62,10.62-6.63,12.21,11.94,12.21,11.94,3,9.29,8.22,10.62,44.61,54.43,44.61,54.43l-14.17,28.76-11.5,69.92s.5,11.06-2.63,15.09-15.08,3.09-9.54,8,13.5,9.29,17.93,31.43,9.73,35,9.73,35-41.58,10.63-46,15.49-19.47-27.43-19.47-27.43.89,24.28-19,14.13-54-7-54-7v-26.15s6.64-10.19,3.11-17.27,2.41-20.35,2.41-20.35-2-13.72-5.52-21.68-2.21-45.58-2.21-45.58-2.69-24.34-.24-36.74a109.82,109.82,0,0,1,10.9-30.78c4.86-9.48,7.94-18.33,6.62-21.88s11.68-11.21,11.68-11.21l7.2,11.65,1.84,7S1082.14,1027.48,1081.25,1014.2Z" transform="translate(-379.99 -600.1)"/><path class="cls-14" d="M1144.92,1075.71s24.77,24.33,27.42,28.32,11.54,24.7,0,31-56.56,16-61,12.64-31.42,3.77-31.42,3.77-45.07,11.06-35.35-7.08,32.75-15.09,32.75-15.09,37.18-.06,41.15-3.77,33.94-11.67,27.15-28.06S1144.92,1075.71,1144.92,1075.71Z" transform="translate(-379.99 -600.1)"/><path class="cls-5" d="M1072.16,1184.57s-57.7,50-52,50S1072.16,1184.57,1072.16,1184.57Z" transform="translate(-379.99 -600.1)"/><path class="cls-5" d="M1110.65,1204.93s-18.34,4.41-14.79,7.08S1110.65,1204.93,1110.65,1204.93Z" transform="translate(-379.99 -600.1)"/><path class="cls-5" d="M1046,1083.67s22.89,2,18.86,9.22S1046,1083.67,1046,1083.67Z" transform="translate(-379.99 -600.1)"/><path class="cls-5" d="M1031.72,1298.59s-3.11,9,0,13.83,0,16.34,0,16.34V1369s-.43,29.2,10.16,39.38Z" transform="translate(-379.99 -600.1)"/><path class="cls-5" d="M1001.41,1424s6.19,9.06,7.08,12.38S1001.41,1424,1001.41,1424Z" transform="translate(-379.99 -600.1)"/><path class="cls-5" d="M1003,1405.82s14.38-2.65,16.59-1.1S1003,1405.82,1003,1405.82Z" transform="translate(-379.99 -600.1)"/><path class="cls-5" d="M998.76,1460s-4.21.44,4.2,5,24.77,10.39,25,8.41S998.76,1460,998.76,1460Z" transform="translate(-379.99 -600.1)"/><path class="cls-5" d="M1060.31,1416c1.49,0,20-1.11,18.93,1.77S1060.31,1416,1060.31,1416Z" transform="translate(-379.99 -600.1)"/><path class="cls-5" d="M1085.46,1390.11s4.2-7.3,5.75-4.2S1085.46,1390.11,1085.46,1390.11Z" transform="translate(-379.99 -600.1)"/><path class="cls-5" d="M1072.16,979.24a58.07,58.07,0,0,1-2.23,16c-2.44,2.22-6.65,2.24-9.66.59-3.51-1.93-5.82-5.45-8.1-8.8s-4.89-6.69-8.64-8.12c-4.74-1.79-10.14,0-14.27,3s-7.41,6.89-11.31,10.06-8.86,5.73-13.82,5c-3.21-.49-6-2.3-8.8-4.05-3.77-2.37-7.82-6.07-12-7.67s-7.54,1.26-11.47,1.26c-3.13,1.13-6.54,3.71-5.91,7a10.8,10.8,0,0,0,1.61,3.37,14.16,14.16,0,0,1-1.85,15.58,58.4,58.4,0,1,1,106.43-33.23Z" transform="translate(-379.99 -600.1)"/><path class="cls-17" d="M971.88,984.78c-3.12,1.13-6.53,3.71-5.92,7a11.38,11.38,0,0,0,1.63,3.36c3.67,6.55.56,16-6.29,19a5.62,5.62,0,0,1-3.49.55,6.14,6.14,0,0,1-2.52-1.51,23.31,23.31,0,0,1-7.25-12.51c-1.08-5-.41-10.36-1-15.53s-2.32-10.26-2.94-15.46a14.46,14.46,0,0,1,.79-7.65,17.85,17.85,0,0,1,3.17-4.35c3.53-3.94,7.22-8,9-12.95,2.8-8,.77-18.07,6.9-23.89,2.84-2.66,6.81-3.66,10.33-5.34a72.12,72.12,0,0,0,9.49-6c11.38-7.81,25.2-13.83,38.73-11.06a55,55,0,0,1,15.34,6.29,172.21,172.21,0,0,1,25.15,16.9,38.89,38.89,0,0,1,8.79,9,31.3,31.3,0,0,1,3.85,9.61,55.2,55.2,0,0,1,.73,22.64c-1.26,7.36-4.11,14.52-4.23,22,0,2.51.21,5.23-1.09,7.39-2.07,3.45-7.21,3.77-10.73,1.86s-5.82-5.45-8.1-8.8-4.89-6.69-8.63-8.11c-4.74-1.8-10.15,0-14.27,3s-7.4,6.89-11.31,10.06-8.8,5.73-13.83,4.95c-3.2-.49-6-2.29-8.8-4-3.77-2.39-7.82-6.08-11.94-7.67S975.81,984.78,971.88,984.78Z" transform="translate(-379.99 -600.1)"/><path class="cls-11" d="M1106,1075.71s-65,60.18-51.76,90.27,71.64-23,71.64-23l20.82-48.18Z" transform="translate(-379.99 -600.1)"/><g class="cls-18"><path class="cls-5" d="M961.28,1010.54a5.56,5.56,0,0,1-3.49.56,6.07,6.07,0,0,1-2.51-1.52,23.3,23.3,0,0,1-7.26-12.5c-1.07-5.09-.41-10.37-1-15.54s-2.34-10.25-2.94-15.47a3.51,3.51,0,0,0-.06-.78,19.6,19.6,0,0,0,.06,4.33c.6,5.2,2.39,10.23,2.94,15.46s-.11,10.45,1,15.53a23.23,23.23,0,0,0,7.26,12.51,6.11,6.11,0,0,0,2.51,1.51,5.55,5.55,0,0,0,3.49-.55c5.4-2.4,8.46-8.73,7.74-14.51a13.92,13.92,0,0,1-7.74,11Z" transform="translate(-379.99 -600.1)"/><path class="cls-5" d="M1076.3,959.31c-1.26,7.37-4.11,14.52-4.21,22,0,2.52.2,5.23-1.11,7.4-2.06,3.44-7.2,3.77-10.72,1.85s-5.82-5.44-8.11-8.8-4.87-6.69-8.63-8.11c-4.73-1.78-10.13,0-14.26,3s-7.41,6.88-11.31,10.06-8.86,5.73-13.82,5c-3.21-.51-6-2.3-8.8-4-3.77-2.39-7.82-6.07-11.94-7.67s-7.55,1.26-11.48,1.26c-3.13,1.14-6.54,3.71-5.93,7a4.78,4.78,0,0,0,.34,1,9.77,9.77,0,0,1,5.59-4.48c3.92,0,7.39-2.82,11.48-1.26s8.2,5.28,11.94,7.67c2.73,1.75,5.57,3.55,8.8,4,5,.78,10-1.75,13.82-4.95s7.21-7.17,11.31-10.06,9.53-4.76,14.26-3c3.77,1.42,6.36,4.81,8.63,8.11s4.59,6.82,8.11,8.8,8.66,1.59,10.72-1.86c1.26-2.16,1.07-4.86,1.11-7.39.1-7.48,2.92-14.64,4.21-22a55.82,55.82,0,0,0,.8-11.47A55.21,55.21,0,0,1,1076.3,959.31Z" transform="translate(-379.99 -600.1)"/></g><path class="cls-5" d="M1028.17,769.49s-23.88,43.36,8.8,65.49,35.84,19.92,35.84,19.92-.46,5.31,0,6.64,8.8,4.41,8.8,4.41,10.16,16.35,24.76,23.46,17.26,23.89,17.26,23.89,0,5.76,7.54,11.07,13.34,20.79,13.34,20.79v14.17c0,2.22,2.66,8.81-3.09,9.51s-.89,13.94-.89,13.94-6.18,7.55-4.86,11.07-2.66,10.61-2.66,10.61-4.86,7.08-4.42,8.41-5.3,6.2-4,9.29-6.62,7.08-5.3,10.63-5.65,5.3-5.65,5.3l-19.12,44.26s40.22,8.8,50.6,31l50.71-92.93s28.3-69.47,29.2-73.89-6.2-20.36-6.2-20.36l-34.5-62.87-51.77-73S1091.43,702.67,1028.17,769.49Z" transform="translate(-379.99 -600.1)"/><path class="cls-5" d="M1079.24,787.78s-62.14,21.82-29.41,44,35.83,19.9,35.83,19.9-.44,5.32,0,6.64,8.8,4.43,8.8,4.43,10.18,16.34,24.78,23.46,17.26,23.89,17.26,23.89,0,5.76,7.54,11.06,13.27,20.8,13.27,20.8v14.15c0,2.22,2.65,8.81-3.1,9.52s-.88,13.95-.88,13.95-6.2,7.54-4.87,11.05-2.65,10.62-2.65,10.62-4.87,7.08-4.43,8.41-5.31,6.2-4,9.3-6.64,7.08-5.3,10.62-5.67,5.31-5.67,5.31l-19.11,44.24s33.14,1.71,43.59,23.89l57.71-85.79s28.32-69.46,29.2-73.89-6.17-20.41-6.17-20.41L1197.14,860l-78.71-45.42S1142.5,721,1079.24,787.78Z" transform="translate(-379.99 -600.1)"/><path class="cls-4" d="M1031.72,769.49s-23.89,43.36,8.8,65.49,35.83,19.92,35.83,19.92-.44,5.31,0,6.64,8.8,4.41,8.8,4.41,10.18,16.35,24.77,23.46,17.26,23.89,17.26,23.89,0,5.76,7.54,11.07,13.34,20.79,13.34,20.79v14.17c0,2.22,2.65,8.81-3.11,9.51s-.88,13.94-.88,13.94-6.19,7.55-4.86,11.07-2.65,10.61-2.65,10.61-4.87,7.08-4.43,8.41-5.31,6.2-4,9.29-6.64,7.08-5.3,10.63-5.67,5.3-5.67,5.3l-19.11,44.26s40.15,8.8,50.59,31l50.71-92.93s28.32-69.47,29.2-73.89-6.2-20.36-6.2-20.36l-34.5-62.87-51.75-73S1095,702.67,1031.72,769.49Z" transform="translate(-379.99 -600.1)"/><g class="cls-18"><path class="cls-5" d="M770.43,791.27a62.56,62.56,0,0,0-3.52-16.1c-1.82-5-4.31-10-4.9-15.32v-.48a20.77,20.77,0,0,0,0,4c.59,5.34,3.08,10.26,4.9,15.33a62.41,62.41,0,0,1,3.52,16.08c.18,2.06.26,4.15.28,6.29C770.75,797.75,770.71,794.5,770.43,791.27Z" transform="translate(-379.99 -600.1)"/><path class="cls-5" d="M813.7,846.36c-2.7,5.94-10.91,6.88-17.2,5.13a35.29,35.29,0,0,1-23.45-21.93,51.61,51.61,0,0,1-2.51-16.73c-.08,6.93.18,13.77,2.51,20.27A35.33,35.33,0,0,0,796.5,855c6.29,1.73,14.5.8,17.2-5.14,1.14-2.52,1-5.44,1-8.3A13.19,13.19,0,0,1,813.7,846.36Z" transform="translate(-379.99 -600.1)"/><path class="cls-5" d="M935.82,763.71c-.54,4-2.13,8.55-6,9.89a9.42,9.42,0,0,1-6.7-.63c-6.28-2.74-11.88-9.35-18.59-7.76-5.48,1.26-8.1,7.46-9.55,12.92a31.7,31.7,0,0,0-1.34,10.65,42,42,0,0,1,1.34-7.12c1.45-5.44,4.07-11.61,9.55-12.91,6.71-1.59,12.26,5,18.59,7.75a9.37,9.37,0,0,0,6.7.65c3.84-1.35,5.43-5.88,6-9.91a44.75,44.75,0,0,0,.38-7.76C936.14,760.89,936,762.31,935.82,763.71Z" transform="translate(-379.99 -600.1)"/><path class="cls-5" d="M901.19,814.93c-3.77,2.73-8.88-.18-13-2.35-4.42-2.33-10-3.77-14.26-1.1-1.45.91-2.62,2.22-4,3.18a14.42,14.42,0,0,1-9.7,2c-8-.82-11-5.89-17.1-9.81-4.47-2.88-13.82-4.11-16.49,1.8a10.72,10.72,0,0,0-.51,5.44,7,7,0,0,1,.51-1.9c2.68-5.92,12-4.69,16.49-1.79,6.1,3.92,9.09,9,17.1,9.8a14.48,14.48,0,0,0,9.7-2c1.41-1,2.58-2.26,4-3.17,4.24-2.64,9.84-1.26,14.26,1.09,4.14,2.17,9.23,5,13,2.34,2.22-1.58,2.75-4.4,2.25-7.18A5.78,5.78,0,0,1,901.19,814.93Z" transform="translate(-379.99 -600.1)"/><path class="cls-5" d="M825.75,821c-1.72,4-7,5-9.45,8.59-1.82,2.64-1.67,5.93-1.61,9.24a10.53,10.53,0,0,1,1.61-5.7c2.44-3.56,7.73-4.65,9.45-8.6a10.93,10.93,0,0,0,.48-5.35A7.19,7.19,0,0,1,825.75,821Z" transform="translate(-379.99 -600.1)"/></g></g></svg>